<mxfile host="app.diagrams.net" modified="2024-04-07T13:18:00.559Z" agent="Mozilla/5.0 (Windows NT 10.0; Win64; x64) AppleWebKit/537.36 (KHTML, like Gecko) Chrome/123.0.0.0 Safari/537.36" etag="5eV3ExTJuglj4_gixGUx" version="24.2.2" type="device">
  <diagram name="Σελίδα-1" id="uMqA1R6x-6Gs1QEI-oIA">
    <mxGraphModel dx="1834" dy="1180" grid="0" gridSize="10" guides="1" tooltips="1" connect="1" arrows="1" fold="1" page="0" pageScale="1" pageWidth="827" pageHeight="1169" math="0" shadow="0">
      <root>
        <mxCell id="0" />
        <mxCell id="1" parent="0" />
        <mxCell id="8HXO2fy5qahvrB5KiCP4-82" value="" style="rounded=0;whiteSpace=wrap;html=1;fillColor=none;" parent="1" vertex="1">
          <mxGeometry x="-171" y="-266" width="1562" height="905" as="geometry" />
        </mxCell>
        <mxCell id="8HXO2fy5qahvrB5KiCP4-1" value="Δημιουργία Κουίζ για&lt;br&gt;Ιστορικό Περίπατο" style="ellipse;whiteSpace=wrap;html=1;" parent="1" vertex="1">
          <mxGeometry x="-91" y="-240" width="128" height="61" as="geometry" />
        </mxCell>
        <mxCell id="8HXO2fy5qahvrB5KiCP4-2" value="Διαχειριστής" style="shape=umlActor;verticalLabelPosition=bottom;verticalAlign=top;html=1;outlineConnect=0;" parent="1" vertex="1">
          <mxGeometry x="-292" y="-80" width="30" height="60" as="geometry" />
        </mxCell>
        <mxCell id="8HXO2fy5qahvrB5KiCP4-3" value="Χρήστης" style="shape=umlActor;verticalLabelPosition=bottom;verticalAlign=top;html=1;outlineConnect=0;" parent="1" vertex="1">
          <mxGeometry x="559" y="694" width="30" height="62" as="geometry" />
        </mxCell>
        <mxCell id="8HXO2fy5qahvrB5KiCP4-8" value="Σύστημα Τοποθεσίας" style="shape=umlActor;verticalLabelPosition=bottom;verticalAlign=top;html=1;outlineConnect=0;" parent="1" vertex="1">
          <mxGeometry x="1471" y="-80" width="30" height="60" as="geometry" />
        </mxCell>
        <mxCell id="8HXO2fy5qahvrB5KiCP4-14" value="Διόρθωση Ιστορικού Περιπάτου ή Σημείου" style="ellipse;whiteSpace=wrap;html=1;" parent="1" vertex="1">
          <mxGeometry x="-91" y="-135" width="128" height="61" as="geometry" />
        </mxCell>
        <mxCell id="8HXO2fy5qahvrB5KiCP4-15" value="Διαγραφή Ιστορικού Περιπάτου ή Σημείου" style="ellipse;whiteSpace=wrap;html=1;" parent="1" vertex="1">
          <mxGeometry x="83" y="-194" width="128" height="61" as="geometry" />
        </mxCell>
        <mxCell id="8HXO2fy5qahvrB5KiCP4-29" style="edgeStyle=none;curved=1;rounded=0;orthogonalLoop=1;jettySize=auto;html=1;exitX=0;exitY=0.5;exitDx=0;exitDy=0;entryX=1;entryY=0;entryDx=0;entryDy=0;fontSize=12;startSize=8;endSize=8;dashed=1;" parent="1" source="8HXO2fy5qahvrB5KiCP4-16" target="8HXO2fy5qahvrB5KiCP4-17" edge="1">
          <mxGeometry relative="1" as="geometry" />
        </mxCell>
        <mxCell id="8HXO2fy5qahvrB5KiCP4-16" value="Απόρριψη Συνεισφοράς" style="ellipse;whiteSpace=wrap;html=1;" parent="1" vertex="1">
          <mxGeometry x="83" y="-81" width="128" height="61" as="geometry" />
        </mxCell>
        <mxCell id="8HXO2fy5qahvrB5KiCP4-30" style="edgeStyle=none;curved=1;rounded=0;orthogonalLoop=1;jettySize=auto;html=1;exitX=0.5;exitY=0;exitDx=0;exitDy=0;entryX=0.5;entryY=1;entryDx=0;entryDy=0;fontSize=12;startSize=8;endSize=8;" parent="1" source="8HXO2fy5qahvrB5KiCP4-17" target="8HXO2fy5qahvrB5KiCP4-14" edge="1">
          <mxGeometry relative="1" as="geometry" />
        </mxCell>
        <mxCell id="8HXO2fy5qahvrB5KiCP4-17" value="Έγκριση Συνεισφοράς Χρήστη" style="ellipse;whiteSpace=wrap;html=1;fillColor=#d5e8d4;strokeColor=#82b366;" parent="1" vertex="1">
          <mxGeometry x="-91" y="-25" width="128" height="61" as="geometry" />
        </mxCell>
        <mxCell id="8HXO2fy5qahvrB5KiCP4-18" value="Αφαίρεση Αξιολόγησης Χρήστη" style="ellipse;whiteSpace=wrap;html=1;" parent="1" vertex="1">
          <mxGeometry x="-89" y="51" width="128" height="61" as="geometry" />
        </mxCell>
        <mxCell id="8HXO2fy5qahvrB5KiCP4-19" value="Επεξεργασία Προφίλ Χρηστών" style="ellipse;whiteSpace=wrap;html=1;" parent="1" vertex="1">
          <mxGeometry x="-89" y="132" width="128" height="61" as="geometry" />
        </mxCell>
        <mxCell id="8HXO2fy5qahvrB5KiCP4-23" value="" style="endArrow=none;html=1;rounded=0;fontSize=12;startSize=8;endSize=8;curved=1;entryX=0;entryY=0.5;entryDx=0;entryDy=0;" parent="1" target="8HXO2fy5qahvrB5KiCP4-1" edge="1">
          <mxGeometry width="50" height="50" relative="1" as="geometry">
            <mxPoint x="-242" y="-47" as="sourcePoint" />
            <mxPoint x="-115" y="-108" as="targetPoint" />
          </mxGeometry>
        </mxCell>
        <mxCell id="8HXO2fy5qahvrB5KiCP4-24" value="" style="endArrow=none;html=1;rounded=0;fontSize=12;startSize=8;endSize=8;curved=1;entryX=0;entryY=0.5;entryDx=0;entryDy=0;" parent="1" target="8HXO2fy5qahvrB5KiCP4-14" edge="1">
          <mxGeometry width="50" height="50" relative="1" as="geometry">
            <mxPoint x="-242" y="-47" as="sourcePoint" />
            <mxPoint x="-115" y="-108" as="targetPoint" />
          </mxGeometry>
        </mxCell>
        <mxCell id="8HXO2fy5qahvrB5KiCP4-25" value="" style="endArrow=none;html=1;rounded=0;fontSize=12;startSize=8;endSize=8;curved=1;entryX=0;entryY=0.5;entryDx=0;entryDy=0;" parent="1" target="8HXO2fy5qahvrB5KiCP4-18" edge="1">
          <mxGeometry width="50" height="50" relative="1" as="geometry">
            <mxPoint x="-241" y="-47" as="sourcePoint" />
            <mxPoint x="-230" y="92" as="targetPoint" />
          </mxGeometry>
        </mxCell>
        <mxCell id="8HXO2fy5qahvrB5KiCP4-26" value="" style="endArrow=none;html=1;rounded=0;fontSize=12;startSize=8;endSize=8;curved=1;entryX=0.5;entryY=1;entryDx=0;entryDy=0;" parent="1" target="8HXO2fy5qahvrB5KiCP4-35" edge="1">
          <mxGeometry width="50" height="50" relative="1" as="geometry">
            <mxPoint x="570" y="682" as="sourcePoint" />
            <mxPoint x="-148" y="374" as="targetPoint" />
          </mxGeometry>
        </mxCell>
        <mxCell id="8HXO2fy5qahvrB5KiCP4-27" value="" style="endArrow=none;html=1;rounded=0;fontSize=12;startSize=8;endSize=8;curved=1;entryX=0;entryY=0.5;entryDx=0;entryDy=0;" parent="1" target="8HXO2fy5qahvrB5KiCP4-17" edge="1">
          <mxGeometry width="50" height="50" relative="1" as="geometry">
            <mxPoint x="-240" y="-47" as="sourcePoint" />
            <mxPoint x="-139" y="40" as="targetPoint" />
          </mxGeometry>
        </mxCell>
        <mxCell id="8HXO2fy5qahvrB5KiCP4-28" value="" style="endArrow=none;html=1;rounded=0;fontSize=12;startSize=8;endSize=8;curved=1;entryX=0;entryY=0.5;entryDx=0;entryDy=0;" parent="1" target="8HXO2fy5qahvrB5KiCP4-19" edge="1">
          <mxGeometry width="50" height="50" relative="1" as="geometry">
            <mxPoint x="-240" y="-48" as="sourcePoint" />
            <mxPoint x="-117" y="192" as="targetPoint" />
          </mxGeometry>
        </mxCell>
        <mxCell id="8HXO2fy5qahvrB5KiCP4-31" style="edgeStyle=none;curved=1;rounded=0;orthogonalLoop=1;jettySize=auto;html=1;exitX=0;exitY=0.5;exitDx=0;exitDy=0;entryX=1;entryY=0;entryDx=0;entryDy=0;fontSize=12;startSize=8;endSize=8;dashed=1;" parent="1" source="8HXO2fy5qahvrB5KiCP4-15" target="8HXO2fy5qahvrB5KiCP4-14" edge="1">
          <mxGeometry relative="1" as="geometry">
            <mxPoint x="89" y="-103" as="sourcePoint" />
            <mxPoint x="25" y="-69" as="targetPoint" />
          </mxGeometry>
        </mxCell>
        <mxCell id="8HXO2fy5qahvrB5KiCP4-32" value="&lt;font style=&quot;font-size: 12px;&quot;&gt;&amp;lt;&amp;lt;&lt;font style=&quot;font-size: 12px;&quot;&gt;includes&amp;gt;&amp;gt;&lt;/font&gt;&lt;/font&gt;" style="text;html=1;align=center;verticalAlign=middle;resizable=0;points=[];autosize=1;strokeColor=none;fillColor=none;fontSize=16;" parent="1" vertex="1">
          <mxGeometry x="-110" y="-65.5" width="90" height="31" as="geometry" />
        </mxCell>
        <mxCell id="8HXO2fy5qahvrB5KiCP4-33" value="&lt;font style=&quot;font-size: 12px;&quot;&gt;&amp;lt;&amp;lt;&lt;font style=&quot;font-size: 12px;&quot;&gt;extends&amp;gt;&amp;gt;&lt;/font&gt;&lt;/font&gt;" style="text;html=1;align=center;verticalAlign=middle;resizable=0;points=[];autosize=1;strokeColor=none;fillColor=none;fontSize=16;" parent="1" vertex="1">
          <mxGeometry x="-8" y="-65.5" width="88" height="31" as="geometry" />
        </mxCell>
        <mxCell id="8HXO2fy5qahvrB5KiCP4-34" value="&lt;font style=&quot;font-size: 12px;&quot;&gt;&amp;lt;&amp;lt;&lt;font style=&quot;font-size: 12px;&quot;&gt;extends&amp;gt;&amp;gt;&lt;/font&gt;&lt;/font&gt;" style="text;html=1;align=center;verticalAlign=middle;resizable=0;points=[];autosize=1;strokeColor=none;fillColor=none;fontSize=16;" parent="1" vertex="1">
          <mxGeometry x="-8" y="-179" width="88" height="31" as="geometry" />
        </mxCell>
        <mxCell id="8HXO2fy5qahvrB5KiCP4-35" value="Διοργάνωση Ξενάγησης" style="ellipse;whiteSpace=wrap;html=1;fillColor=#d5e8d4;strokeColor=#82b366;" parent="1" vertex="1">
          <mxGeometry x="-89" y="270" width="128" height="61" as="geometry" />
        </mxCell>
        <mxCell id="8HXO2fy5qahvrB5KiCP4-36" value="Επεξεργασία Προφίλ" style="ellipse;whiteSpace=wrap;html=1;fillColor=#d5e8d4;strokeColor=#82b366;" parent="1" vertex="1">
          <mxGeometry x="-31" y="402" width="128" height="61" as="geometry" />
        </mxCell>
        <mxCell id="8HXO2fy5qahvrB5KiCP4-37" value="Αναζήτηση Ιστορικών Σημείων" style="ellipse;whiteSpace=wrap;html=1;fillColor=#d5e8d4;strokeColor=#82b366;" parent="1" vertex="1">
          <mxGeometry x="127" y="272" width="128" height="61" as="geometry" />
        </mxCell>
        <mxCell id="8HXO2fy5qahvrB5KiCP4-38" value="Αξιολόγηση Σημείου" style="ellipse;whiteSpace=wrap;html=1;" parent="1" vertex="1">
          <mxGeometry x="1249" y="544" width="128" height="61" as="geometry" />
        </mxCell>
        <mxCell id="8HXO2fy5qahvrB5KiCP4-39" value="Σύνδεση" style="ellipse;whiteSpace=wrap;html=1;" parent="1" vertex="1">
          <mxGeometry x="360" y="249" width="128" height="61" as="geometry" />
        </mxCell>
        <mxCell id="8HXO2fy5qahvrB5KiCP4-40" value="Αξιολόγηση Ξενάγησης" style="ellipse;whiteSpace=wrap;html=1;" parent="1" vertex="1">
          <mxGeometry x="367" y="390" width="128" height="61" as="geometry" />
        </mxCell>
        <mxCell id="8HXO2fy5qahvrB5KiCP4-41" value="Συνεισφορά Ιστορικού Σημείου" style="ellipse;whiteSpace=wrap;html=1;fillColor=#d5e8d4;strokeColor=#82b366;" parent="1" vertex="1">
          <mxGeometry x="495" y="285" width="128" height="61" as="geometry" />
        </mxCell>
        <mxCell id="8HXO2fy5qahvrB5KiCP4-42" value="Συμμετοχή σε Ιστορικό Περίπατο" style="ellipse;whiteSpace=wrap;html=1;fillColor=#d5e8d4;strokeColor=#82b366;" parent="1" vertex="1">
          <mxGeometry x="570" y="382" width="128" height="61" as="geometry" />
        </mxCell>
        <mxCell id="8HXO2fy5qahvrB5KiCP4-43" value="Συνεισφορά Ιστορικού Περιπάτου" style="ellipse;whiteSpace=wrap;html=1;fillColor=#d5e8d4;strokeColor=#82b366;" parent="1" vertex="1">
          <mxGeometry x="685" y="270" width="128" height="61" as="geometry" />
        </mxCell>
        <mxCell id="8HXO2fy5qahvrB5KiCP4-44" value="Κράτηση Ξενάγησης" style="ellipse;whiteSpace=wrap;html=1;" parent="1" vertex="1">
          <mxGeometry x="725" y="382" width="128" height="61" as="geometry" />
        </mxCell>
        <mxCell id="8HXO2fy5qahvrB5KiCP4-45" value="Εγγραφή" style="ellipse;whiteSpace=wrap;html=1;" parent="1" vertex="1">
          <mxGeometry x="968" y="396" width="128" height="61" as="geometry" />
        </mxCell>
        <mxCell id="8HXO2fy5qahvrB5KiCP4-79" style="edgeStyle=none;curved=1;rounded=0;orthogonalLoop=1;jettySize=auto;html=1;exitX=0;exitY=0.5;exitDx=0;exitDy=0;entryX=1;entryY=0.5;entryDx=0;entryDy=0;fontSize=12;startSize=8;endSize=8;dashed=1;" parent="1" source="8HXO2fy5qahvrB5KiCP4-46" target="8HXO2fy5qahvrB5KiCP4-43" edge="1">
          <mxGeometry relative="1" as="geometry" />
        </mxCell>
        <mxCell id="8HXO2fy5qahvrB5KiCP4-46" value="Ακύρωση Δημιουργίας Ιστορικού Περιπάτου" style="ellipse;whiteSpace=wrap;html=1;" parent="1" vertex="1">
          <mxGeometry x="929" y="215" width="128" height="61" as="geometry" />
        </mxCell>
        <mxCell id="8HXO2fy5qahvrB5KiCP4-78" style="edgeStyle=none;curved=1;rounded=0;orthogonalLoop=1;jettySize=auto;html=1;exitX=0.5;exitY=1;exitDx=0;exitDy=0;entryX=0.5;entryY=0;entryDx=0;entryDy=0;fontSize=12;startSize=8;endSize=8;dashed=1;" parent="1" source="8HXO2fy5qahvrB5KiCP4-47" target="8HXO2fy5qahvrB5KiCP4-41" edge="1">
          <mxGeometry relative="1" as="geometry" />
        </mxCell>
        <mxCell id="8HXO2fy5qahvrB5KiCP4-47" value="Ακύρωση Δημιουργίας Ιστορικού Σημείου" style="ellipse;whiteSpace=wrap;html=1;" parent="1" vertex="1">
          <mxGeometry x="475" y="85" width="128" height="61" as="geometry" />
        </mxCell>
        <mxCell id="8HXO2fy5qahvrB5KiCP4-49" value="Προσθήκη Σημείου στα Αγαπημένα" style="ellipse;whiteSpace=wrap;html=1;" parent="1" vertex="1">
          <mxGeometry x="857" y="306" width="128" height="61" as="geometry" />
        </mxCell>
        <mxCell id="8HXO2fy5qahvrB5KiCP4-50" value="Δημιουργία Κοινής Περιήγησης" style="ellipse;whiteSpace=wrap;html=1;" parent="1" vertex="1">
          <mxGeometry x="1032" y="285" width="128" height="61" as="geometry" />
        </mxCell>
        <mxCell id="8HXO2fy5qahvrB5KiCP4-51" value="Συμμετοχή σε Κοινή Περιήγηση" style="ellipse;whiteSpace=wrap;html=1;" parent="1" vertex="1">
          <mxGeometry x="1156" y="361" width="128" height="61" as="geometry" />
        </mxCell>
        <mxCell id="8HXO2fy5qahvrB5KiCP4-52" value="Ιστορικό Επισκέψεων" style="ellipse;whiteSpace=wrap;html=1;fillColor=#d5e8d4;strokeColor=#82b366;" parent="1" vertex="1">
          <mxGeometry x="1132" y="465" width="128" height="61" as="geometry" />
        </mxCell>
        <mxCell id="8HXO2fy5qahvrB5KiCP4-55" value="" style="endArrow=none;html=1;rounded=0;fontSize=12;startSize=8;endSize=8;curved=1;entryX=1;entryY=0.5;entryDx=0;entryDy=0;" parent="1" target="8HXO2fy5qahvrB5KiCP4-37" edge="1">
          <mxGeometry width="50" height="50" relative="1" as="geometry">
            <mxPoint x="570" y="682" as="sourcePoint" />
            <mxPoint x="443" y="541" as="targetPoint" />
          </mxGeometry>
        </mxCell>
        <mxCell id="8HXO2fy5qahvrB5KiCP4-56" value="" style="endArrow=none;html=1;rounded=0;fontSize=12;startSize=8;endSize=8;curved=1;entryX=0.5;entryY=1;entryDx=0;entryDy=0;" parent="1" target="8HXO2fy5qahvrB5KiCP4-40" edge="1">
          <mxGeometry width="50" height="50" relative="1" as="geometry">
            <mxPoint x="570" y="682" as="sourcePoint" />
            <mxPoint x="443" y="543" as="targetPoint" />
          </mxGeometry>
        </mxCell>
        <mxCell id="8HXO2fy5qahvrB5KiCP4-57" value="" style="endArrow=none;html=1;rounded=0;fontSize=12;startSize=8;endSize=8;curved=1;entryX=1;entryY=1;entryDx=0;entryDy=0;" parent="1" target="8HXO2fy5qahvrB5KiCP4-39" edge="1">
          <mxGeometry width="50" height="50" relative="1" as="geometry">
            <mxPoint x="572" y="684" as="sourcePoint" />
            <mxPoint x="871.3727172873278" y="495.99778877156507" as="targetPoint" />
          </mxGeometry>
        </mxCell>
        <mxCell id="8HXO2fy5qahvrB5KiCP4-58" value="" style="endArrow=none;html=1;rounded=0;fontSize=12;startSize=8;endSize=8;curved=1;entryX=0.5;entryY=1;entryDx=0;entryDy=0;" parent="1" target="8HXO2fy5qahvrB5KiCP4-42" edge="1">
          <mxGeometry width="50" height="50" relative="1" as="geometry">
            <mxPoint x="572" y="682" as="sourcePoint" />
            <mxPoint x="445" y="543" as="targetPoint" />
          </mxGeometry>
        </mxCell>
        <mxCell id="8HXO2fy5qahvrB5KiCP4-59" value="" style="endArrow=none;html=1;rounded=0;fontSize=12;startSize=8;endSize=8;curved=1;entryX=0.5;entryY=1;entryDx=0;entryDy=0;" parent="1" target="8HXO2fy5qahvrB5KiCP4-36" edge="1">
          <mxGeometry width="50" height="50" relative="1" as="geometry">
            <mxPoint x="572" y="681" as="sourcePoint" />
            <mxPoint x="443" y="541" as="targetPoint" />
          </mxGeometry>
        </mxCell>
        <mxCell id="8HXO2fy5qahvrB5KiCP4-60" value="" style="endArrow=none;html=1;rounded=0;fontSize=12;startSize=8;endSize=8;curved=1;entryX=0.5;entryY=1;entryDx=0;entryDy=0;" parent="1" target="8HXO2fy5qahvrB5KiCP4-44" edge="1">
          <mxGeometry width="50" height="50" relative="1" as="geometry">
            <mxPoint x="572" y="682" as="sourcePoint" />
            <mxPoint x="753" y="549" as="targetPoint" />
          </mxGeometry>
        </mxCell>
        <mxCell id="8HXO2fy5qahvrB5KiCP4-64" value="" style="endArrow=none;html=1;rounded=0;fontSize=12;startSize=8;endSize=8;curved=1;entryX=0;entryY=1;entryDx=0;entryDy=0;" parent="1" target="8HXO2fy5qahvrB5KiCP4-45" edge="1">
          <mxGeometry width="50" height="50" relative="1" as="geometry">
            <mxPoint x="572" y="682" as="sourcePoint" />
            <mxPoint x="953" y="503" as="targetPoint" />
          </mxGeometry>
        </mxCell>
        <mxCell id="8HXO2fy5qahvrB5KiCP4-65" value="" style="endArrow=none;html=1;rounded=0;fontSize=12;startSize=8;endSize=8;curved=1;entryX=0;entryY=1;entryDx=0;entryDy=0;" parent="1" target="8HXO2fy5qahvrB5KiCP4-51" edge="1">
          <mxGeometry width="50" height="50" relative="1" as="geometry">
            <mxPoint x="570" y="682" as="sourcePoint" />
            <mxPoint x="1250" y="405" as="targetPoint" />
          </mxGeometry>
        </mxCell>
        <mxCell id="8HXO2fy5qahvrB5KiCP4-66" value="" style="endArrow=none;html=1;rounded=0;fontSize=12;startSize=8;endSize=8;curved=1;entryX=0.5;entryY=1;entryDx=0;entryDy=0;" parent="1" target="8HXO2fy5qahvrB5KiCP4-49" edge="1">
          <mxGeometry width="50" height="50" relative="1" as="geometry">
            <mxPoint x="572" y="682" as="sourcePoint" />
            <mxPoint x="897" y="591" as="targetPoint" />
          </mxGeometry>
        </mxCell>
        <mxCell id="8HXO2fy5qahvrB5KiCP4-67" value="" style="endArrow=none;html=1;rounded=0;fontSize=12;startSize=8;endSize=8;curved=1;entryX=0.5;entryY=1;entryDx=0;entryDy=0;" parent="1" target="8HXO2fy5qahvrB5KiCP4-43" edge="1">
          <mxGeometry width="50" height="50" relative="1" as="geometry">
            <mxPoint x="572" y="682" as="sourcePoint" />
            <mxPoint x="743" y="340" as="targetPoint" />
          </mxGeometry>
        </mxCell>
        <mxCell id="8HXO2fy5qahvrB5KiCP4-68" value="" style="endArrow=none;html=1;rounded=0;fontSize=12;startSize=8;endSize=8;curved=1;entryX=0;entryY=0.5;entryDx=0;entryDy=0;" parent="1" target="8HXO2fy5qahvrB5KiCP4-52" edge="1">
          <mxGeometry width="50" height="50" relative="1" as="geometry">
            <mxPoint x="572" y="682" as="sourcePoint" />
            <mxPoint x="1146" y="568" as="targetPoint" />
          </mxGeometry>
        </mxCell>
        <mxCell id="8HXO2fy5qahvrB5KiCP4-70" value="" style="endArrow=none;html=1;rounded=0;fontSize=12;startSize=8;endSize=8;curved=1;exitX=0.5;exitY=1;exitDx=0;exitDy=0;" parent="1" source="8HXO2fy5qahvrB5KiCP4-41" edge="1">
          <mxGeometry width="50" height="50" relative="1" as="geometry">
            <mxPoint x="632" y="374" as="sourcePoint" />
            <mxPoint x="573" y="682" as="targetPoint" />
          </mxGeometry>
        </mxCell>
        <mxCell id="8HXO2fy5qahvrB5KiCP4-71" value="" style="endArrow=none;html=1;rounded=0;fontSize=12;startSize=8;endSize=8;curved=1;entryX=0;entryY=1;entryDx=0;entryDy=0;" parent="1" target="8HXO2fy5qahvrB5KiCP4-50" edge="1">
          <mxGeometry width="50" height="50" relative="1" as="geometry">
            <mxPoint x="570" y="682" as="sourcePoint" />
            <mxPoint x="963" y="695" as="targetPoint" />
          </mxGeometry>
        </mxCell>
        <mxCell id="8HXO2fy5qahvrB5KiCP4-73" value="" style="endArrow=none;html=1;rounded=0;fontSize=12;startSize=8;endSize=8;curved=1;exitX=1;exitY=0;exitDx=0;exitDy=0;" parent="1" source="8HXO2fy5qahvrB5KiCP4-37" edge="1">
          <mxGeometry width="50" height="50" relative="1" as="geometry">
            <mxPoint x="301" y="99" as="sourcePoint" />
            <mxPoint x="1421" y="-47" as="targetPoint" />
          </mxGeometry>
        </mxCell>
        <mxCell id="8HXO2fy5qahvrB5KiCP4-74" value="" style="endArrow=none;html=1;rounded=0;fontSize=12;startSize=8;endSize=8;curved=1;exitX=0.5;exitY=0;exitDx=0;exitDy=0;" parent="1" source="8HXO2fy5qahvrB5KiCP4-43" edge="1">
          <mxGeometry width="50" height="50" relative="1" as="geometry">
            <mxPoint x="655" y="-67" as="sourcePoint" />
            <mxPoint x="1422" y="-48" as="targetPoint" />
          </mxGeometry>
        </mxCell>
        <mxCell id="8HXO2fy5qahvrB5KiCP4-75" value="" style="endArrow=none;html=1;rounded=0;fontSize=12;startSize=8;endSize=8;curved=1;exitX=0.5;exitY=0;exitDx=0;exitDy=0;" parent="1" source="8HXO2fy5qahvrB5KiCP4-41" edge="1">
          <mxGeometry width="50" height="50" relative="1" as="geometry">
            <mxPoint x="895" y="-5" as="sourcePoint" />
            <mxPoint x="1422" y="-48" as="targetPoint" />
          </mxGeometry>
        </mxCell>
        <mxCell id="8HXO2fy5qahvrB5KiCP4-76" value="" style="endArrow=none;html=1;rounded=0;fontSize=12;startSize=8;endSize=8;curved=1;entryX=0.5;entryY=0;entryDx=0;entryDy=0;" parent="1" target="8HXO2fy5qahvrB5KiCP4-51" edge="1">
          <mxGeometry width="50" height="50" relative="1" as="geometry">
            <mxPoint x="1421" y="-47" as="sourcePoint" />
            <mxPoint x="559" y="-145" as="targetPoint" />
          </mxGeometry>
        </mxCell>
        <mxCell id="8HXO2fy5qahvrB5KiCP4-77" value="" style="endArrow=none;html=1;rounded=0;fontSize=12;startSize=8;endSize=8;curved=1;entryX=0.5;entryY=0;entryDx=0;entryDy=0;" parent="1" target="8HXO2fy5qahvrB5KiCP4-50" edge="1">
          <mxGeometry width="50" height="50" relative="1" as="geometry">
            <mxPoint x="1420" y="-45" as="sourcePoint" />
            <mxPoint x="1463" y="230" as="targetPoint" />
          </mxGeometry>
        </mxCell>
        <mxCell id="8HXO2fy5qahvrB5KiCP4-80" value="&lt;font style=&quot;font-size: 12px;&quot;&gt;&amp;lt;&amp;lt;&lt;font style=&quot;font-size: 12px;&quot;&gt;extends&amp;gt;&amp;gt;&lt;/font&gt;&lt;/font&gt;" style="text;html=1;align=center;verticalAlign=middle;resizable=0;points=[];autosize=1;strokeColor=none;fillColor=none;fontSize=16;" parent="1" vertex="1">
          <mxGeometry x="546" y="200" width="88" height="31" as="geometry" />
        </mxCell>
        <mxCell id="8HXO2fy5qahvrB5KiCP4-81" value="&lt;font style=&quot;font-size: 12px;&quot;&gt;&amp;lt;&amp;lt;&lt;font style=&quot;font-size: 12px;&quot;&gt;extends&amp;gt;&amp;gt;&lt;/font&gt;&lt;/font&gt;" style="text;html=1;align=center;verticalAlign=middle;resizable=0;points=[];autosize=1;strokeColor=none;fillColor=none;fontSize=16;" parent="1" vertex="1">
          <mxGeometry x="861" y="262" width="88" height="31" as="geometry" />
        </mxCell>
        <mxCell id="8HXO2fy5qahvrB5KiCP4-83" value="&lt;font style=&quot;font-size: 18px;&quot;&gt;Σύστημα&lt;/font&gt;" style="text;html=1;align=center;verticalAlign=middle;resizable=0;points=[];autosize=1;strokeColor=none;fillColor=none;fontSize=16;" parent="1" vertex="1">
          <mxGeometry x="-175" y="-303" width="88" height="34" as="geometry" />
        </mxCell>
        <mxCell id="Xg2Muk4ND8sdFRJz-X9--2" value="" style="edgeStyle=segmentEdgeStyle;endArrow=classic;html=1;curved=0;rounded=0;endSize=8;startSize=8;fontSize=12;" parent="1" edge="1">
          <mxGeometry width="50" height="50" relative="1" as="geometry">
            <mxPoint x="-276" y="13" as="sourcePoint" />
            <mxPoint x="536" y="731" as="targetPoint" />
            <Array as="points">
              <mxPoint x="-276" y="731" />
            </Array>
          </mxGeometry>
        </mxCell>
        <mxCell id="Ze1bzD0DWDTn4k-w06rL-2" style="edgeStyle=none;curved=1;rounded=0;orthogonalLoop=1;jettySize=auto;html=1;exitX=0.5;exitY=1;exitDx=0;exitDy=0;entryX=0.5;entryY=0;entryDx=0;entryDy=0;fontSize=12;startSize=8;endSize=8;dashed=1;" parent="1" source="Ze1bzD0DWDTn4k-w06rL-1" target="8HXO2fy5qahvrB5KiCP4-37" edge="1">
          <mxGeometry relative="1" as="geometry" />
        </mxCell>
        <mxCell id="Ze1bzD0DWDTn4k-w06rL-1" value="Αναφορά Λάθους" style="ellipse;whiteSpace=wrap;html=1;" parent="1" vertex="1">
          <mxGeometry x="175" y="132" width="128" height="61" as="geometry" />
        </mxCell>
        <mxCell id="Ze1bzD0DWDTn4k-w06rL-3" value="&lt;font style=&quot;font-size: 12px;&quot;&gt;&amp;lt;&amp;lt;extends&lt;font style=&quot;font-size: 12px;&quot;&gt;&amp;gt;&amp;gt;&lt;/font&gt;&lt;/font&gt;" style="text;html=1;align=center;verticalAlign=middle;resizable=0;points=[];autosize=1;strokeColor=none;fillColor=none;fontSize=16;" parent="1" vertex="1">
          <mxGeometry x="134" y="208" width="88" height="31" as="geometry" />
        </mxCell>
        <mxCell id="ravXSl7F1qMPG7Kzb5ep-1" style="edgeStyle=none;curved=1;rounded=0;orthogonalLoop=1;jettySize=auto;html=1;exitX=0.5;exitY=0;exitDx=0;exitDy=0;entryX=1;entryY=0.5;entryDx=0;entryDy=0;fontSize=12;startSize=8;endSize=8;dashed=1;" edge="1" parent="1" source="8HXO2fy5qahvrB5KiCP4-38" target="8HXO2fy5qahvrB5KiCP4-52">
          <mxGeometry relative="1" as="geometry">
            <mxPoint x="549" y="156" as="sourcePoint" />
            <mxPoint x="569" y="295" as="targetPoint" />
          </mxGeometry>
        </mxCell>
        <mxCell id="ravXSl7F1qMPG7Kzb5ep-2" value="&lt;font style=&quot;font-size: 12px;&quot;&gt;&amp;lt;&amp;lt;&lt;font style=&quot;font-size: 12px;&quot;&gt;extends&amp;gt;&amp;gt;&lt;/font&gt;&lt;/font&gt;" style="text;html=1;align=center;verticalAlign=middle;resizable=0;points=[];autosize=1;strokeColor=none;fillColor=none;fontSize=16;" vertex="1" parent="1">
          <mxGeometry x="1284" y="501" width="88" height="31" as="geometry" />
        </mxCell>
      </root>
    </mxGraphModel>
  </diagram>
</mxfile>
